<svg width="8" height="8" viewBox="0 0 8 8" fill="none" xmlns="http://www.w3.org/2000/svg">
<path d="M6.72391 8.00043H1.25361C0.92113 8.00043 0.602271 7.86799 0.367175 7.63218C0.132076 7.39642 0 7.07663 0 6.74322V1.25721C0 0.923775 0.132076 0.604 0.367175 0.36823C0.602271 0.132455 0.92113 0 1.25361 0H3.98876C4.07943 0 4.16641 0.0361254 4.2305 0.100426C4.29464 0.164727 4.33065 0.25194 4.33065 0.342875C4.33065 0.433811 4.29464 0.521024 4.2305 0.585325C4.16641 0.649626 4.07943 0.685751 3.98876 0.685751H1.25361C1.10248 0.685751 0.957548 0.74596 0.850686 0.853129C0.743824 0.960298 0.683787 1.10565 0.683787 1.25721V6.74322C0.683787 6.89477 0.743824 7.04015 0.850686 7.14731C0.957548 7.25447 1.10248 7.31468 1.25361 7.31468H6.72391C6.87502 7.31468 7.01999 7.25447 7.12684 7.14731C7.23369 7.04015 7.29373 6.89477 7.29373 6.74322V4.00021C7.29373 3.90928 7.32974 3.82206 7.39388 3.75778C7.45797 3.69345 7.54495 3.65734 7.63562 3.65734C7.72629 3.65734 7.81327 3.69345 7.87736 3.75778C7.9415 3.82206 7.97752 3.90928 7.97752 4.00021V6.74322C7.97752 7.07663 7.84545 7.39642 7.61032 7.63218C7.37524 7.86799 7.05636 8.00043 6.72391 8.00043Z" fill="black"/>
<path d="M7.63603 2.51442C7.54572 2.51324 7.45943 2.47673 7.39556 2.41269C7.3317 2.34864 7.29532 2.26211 7.29414 2.17154V0.685751H5.8126C5.72193 0.685751 5.63495 0.649626 5.57086 0.585325C5.50672 0.521024 5.4707 0.433811 5.4707 0.342875C5.4707 0.25194 5.50672 0.164727 5.57086 0.100426C5.63495 0.0361254 5.72193 0 5.8126 0H7.63603C7.72633 0.00118406 7.81263 0.0376888 7.87649 0.101733C7.94036 0.165783 7.97674 0.252306 7.97792 0.342875V2.17154C7.97674 2.26211 7.94036 2.34864 7.87649 2.41269C7.81263 2.47673 7.72633 2.51324 7.63603 2.51442Z" fill="black"/>
<path d="M4.67242 3.65755C4.58448 3.65078 4.50266 3.60977 4.44449 3.54325C4.38842 3.48039 4.35742 3.39902 4.35742 3.31467C4.35742 3.23032 4.38842 3.14895 4.44449 3.08609L7.40757 0.1145C7.43889 0.0808115 7.47663 0.0537929 7.51857 0.0350537C7.56051 0.0163144 7.60577 0.00623838 7.65168 0.00542463C7.69758 0.00461087 7.74317 0.0130822 7.78575 0.0303266C7.82832 0.0475709 7.86698 0.0732362 7.89944 0.105796C7.93194 0.138355 7.95752 0.177137 7.9747 0.219832C7.99189 0.262526 8.00037 0.308257 7.99954 0.354293C7.99872 0.400335 7.9887 0.445736 7.97001 0.487795C7.95132 0.529855 7.92437 0.567708 7.89078 0.599097L4.90035 3.54325C4.84218 3.60977 4.76035 3.65078 4.67242 3.65755Z" fill="black"/>
</svg>
