<svg width="206" height="27" viewBox="0 0 206 27" fill="none" xmlns="http://www.w3.org/2000/svg">
<path d="M33.2462 0.826071C33.1756 0.352679 32.7582 0.0157187 32.2981 0.0560142C31.1355 0.155516 30.0658 0.384153 29.0271 0.756332C27.392 1.34109 25.9159 2.19446 24.6367 3.29381L24.6177 3.28835C23.7297 3.04296 22.8117 2.7892 21.8896 2.57991C20.4993 2.26535 19.0697 2.08221 17.6412 2.03615C16.3353 1.99395 14.9807 2.05791 13.492 2.23268C11.9749 2.40978 10.454 2.74401 8.97145 3.22439C8.95851 3.2285 8.947 3.23193 8.93653 3.23492C8.81522 3.11707 8.69311 3.03235 8.59151 2.96198C8.55327 2.93476 8.51361 2.90868 8.47765 2.87923C7.17283 1.80236 5.63715 0.988078 3.91268 0.45916C3.08483 0.205076 2.26796 0.0558238 1.41603 0.00188493C0.974029 -0.0273056 0.581166 0.285539 0.494404 0.732027C0.483198 0.789963 0.470819 0.846313 0.459058 0.902156C0.428454 1.04684 0.396681 1.19609 0.375129 1.36134C0.18621 2.81788 0.207145 4.30696 0.43609 5.78718C0.718546 7.61108 1.2507 9.29207 2.01813 10.7881C1.63648 11.6898 1.39639 12.6984 1.28604 13.864C1.06289 16.2167 1.48346 18.4872 2.53618 20.6118C3.37129 22.2963 4.57347 23.7279 6.11057 24.8664C7.52105 25.9109 8.84847 26.3908 10.4406 26.8863C12.033 27.382 13.6915 25.7191 16.8112 25.7407C19.7535 25.7599 20.4999 27 22.5524 27L22.6265 26.9825C23.7557 26.6639 24.7656 26.2592 25.7141 25.7458C27.4305 24.8176 28.858 23.5305 29.9567 21.9197C31.1694 20.1422 31.8839 18.1187 32.0814 15.9059C32.2368 14.1569 32.0126 12.4631 31.4108 10.8584L31.5311 10.5836C31.8758 9.79643 32.2321 8.98328 32.5279 8.14387C33.0059 6.7855 33.275 5.32926 33.3509 3.69257C33.3862 2.92346 33.4066 1.90231 33.2462 0.826071ZM14.3048 17.9807C14.3048 17.9807 10.8997 18.3373 9.01325 16.3933C7.12683 14.4487 7.47303 10.94 7.47303 10.94C7.47303 10.94 10.8778 10.5839 12.7642 12.5279C14.6509 14.4718 14.3048 17.9807 14.3048 17.9807ZM24.9554 16.3933C23.069 18.3373 19.6641 17.9807 19.6641 17.9807C19.6641 17.9807 19.3183 14.4718 21.2046 12.528C23.0909 10.5839 26.4958 10.9401 26.4958 10.9401C26.4958 10.9401 26.8421 14.4494 24.9554 16.3933Z" fill="black"/>
<path d="M47 5.22624H51.8673L55.9962 15.4715H56.1868L60.3157 5.22624H65.183V21.7738H61.3558V11.6093H61.2209L57.3143 21.6687H54.8687L50.9621 11.5528H50.8272V21.7738H47V5.22624Z" fill="black"/>
<path d="M67.6345 21.7738V5.22624H78.9731V8.47433H71.5649V11.8679H78.3935V15.124H71.5649V18.5257H78.9731V21.7738H67.6345Z" fill="black"/>
<path d="M96.7829 13.5C96.7829 15.3207 96.4388 16.8639 95.7507 18.1298C95.0625 19.3956 94.1309 20.3571 92.9557 21.0143C91.7859 21.6714 90.4731 22 89.0174 22C87.5564 22 86.241 21.6687 85.0711 21.0062C83.9013 20.3436 82.9723 19.3821 82.2841 18.1217C81.6013 16.8558 81.2599 15.3153 81.2599 13.5C81.2599 11.6793 81.6013 10.1361 82.2841 8.87025C82.9723 7.6044 83.9013 6.6429 85.0711 5.98574C86.241 5.32858 87.5564 5 89.0174 5C90.4731 5 91.7859 5.32858 92.9557 5.98574C94.1309 6.6429 95.0625 7.6044 95.7507 8.87025C96.4388 10.1361 96.7829 11.6793 96.7829 13.5ZM92.7652 13.5C92.7652 12.4227 92.6143 11.5124 92.3126 10.769C92.0162 10.0257 91.5874 9.46277 91.0263 9.08032C90.4705 8.69788 89.8008 8.50665 89.0174 8.50665C88.2393 8.50665 87.5697 8.69788 87.0086 9.08032C86.4474 9.46277 86.016 10.0257 85.7143 10.769C85.4179 11.5124 85.2697 12.4227 85.2697 13.5C85.2697 14.5773 85.4179 15.4876 85.7143 16.231C86.016 16.9743 86.4474 17.5372 87.0086 17.9197C87.5697 18.3021 88.2393 18.4933 89.0174 18.4933C89.8008 18.4933 90.4705 18.3021 91.0263 17.9197C91.5874 17.5372 92.0162 16.9743 92.3126 16.231C92.6143 15.4876 92.7652 14.5773 92.7652 13.5Z" fill="black"/>
<path d="M102.168 21.7738L97.436 5.22624H101.779L104.233 16.0694H104.368L107.171 5.22624H110.712L113.515 16.0936H113.65L116.111 5.22624H120.447L115.722 21.7738H111.935L109.005 11.7386H108.878L105.948 21.7738H102.168Z" fill="black"/>
<path d="M126.874 21.7738V5.22624H137.975V8.47433H130.805V11.8679H137.268V15.124H130.805V21.7738H126.874Z" fill="black"/>
<path d="M143.884 5.22624V21.7738H139.954V5.22624H143.884Z" fill="black"/>
<path d="M160.191 5.22624V21.7738H156.856L150.385 12.2234H150.282V21.7738H146.351V5.22624H149.734L156.134 14.7605H156.269V5.22624H160.191Z" fill="black"/>
<path d="M168.673 21.7738H162.663V5.22624H168.665C170.322 5.22624 171.749 5.55751 172.945 6.22006C174.147 6.87722 175.073 7.82525 175.724 9.06416C176.375 10.2977 176.701 11.7736 176.701 13.4919C176.701 15.2156 176.375 16.6969 175.724 17.9358C175.078 19.1747 174.155 20.1255 172.953 20.788C171.751 21.4452 170.325 21.7738 168.673 21.7738ZM166.593 18.3641H168.522C169.433 18.3641 170.203 18.2079 170.833 17.8954C171.468 17.5776 171.947 17.0632 172.27 16.3522C172.598 15.6358 172.762 14.6824 172.762 13.4919C172.762 12.3015 172.598 11.3535 172.27 10.6478C171.942 9.93679 171.458 9.42506 170.817 9.11264C170.182 8.79484 169.398 8.63593 168.467 8.63593H166.593V18.3641Z" fill="black"/>
<path d="M178.995 21.7738V5.22624H190.334V8.47433H182.926V11.8679H189.754V15.124H182.926V18.5257H190.334V21.7738H178.995Z" fill="black"/>
<path d="M192.795 21.7738V5.22624H199.513C200.73 5.22624 201.781 5.44978 202.665 5.89686C203.554 6.33856 204.24 6.97418 204.722 7.80371C205.203 8.62785 205.444 9.60551 205.444 10.7367C205.444 11.884 205.198 12.859 204.706 13.6616C204.213 14.4588 203.515 15.0675 202.61 15.4876C201.704 15.9024 200.632 16.1098 199.394 16.1098H195.146V12.9586H198.663C199.256 12.9586 199.751 12.8805 200.148 12.7243C200.55 12.5627 200.855 12.3203 201.061 11.9971C201.268 11.6686 201.371 11.2484 201.371 10.7367C201.371 10.225 201.268 9.80212 201.061 9.46816C200.855 9.1288 200.55 8.87563 200.148 8.70865C199.746 8.53628 199.251 8.4501 198.663 8.4501H196.726V21.7738H192.795ZM201.951 14.211L206 21.7738H201.712L197.742 14.211H201.951Z" fill="black"/>
</svg>
