<svg width="144" height="17" viewBox="0 0 144 17" fill="none" xmlns="http://www.w3.org/2000/svg">
<path d="M46.9267 7.33681H43.8608C43.8199 7.02204 43.7361 6.73793 43.6094 6.48448C43.4826 6.23102 43.315 6.01436 43.1065 5.83449C42.8981 5.65462 42.6507 5.51768 42.3646 5.42365C42.0825 5.32554 41.7698 5.27649 41.4264 5.27649C40.8173 5.27649 40.292 5.4257 39.8505 5.72412C39.4131 6.02254 39.0758 6.45382 38.8387 7.01795C38.6057 7.58209 38.4892 8.26478 38.4892 9.06602C38.4892 9.89996 38.6077 10.599 38.8449 11.1631C39.086 11.7232 39.4233 12.1463 39.8566 12.4324C40.294 12.7145 40.8112 12.8555 41.408 12.8555C41.7432 12.8555 42.0478 12.8126 42.3217 12.7268C42.5996 12.6409 42.8429 12.5162 43.0513 12.3527C43.2639 12.1851 43.4377 11.9828 43.5726 11.7457C43.7116 11.5045 43.8076 11.2326 43.8608 10.9301L46.9267 10.9485C46.8736 11.5045 46.7121 12.0523 46.4423 12.5919C46.1766 13.1315 45.8107 13.6241 45.3447 14.0697C44.8787 14.5112 44.3104 14.8627 43.64 15.1244C42.9737 15.386 42.2092 15.5168 41.3467 15.5168C40.2102 15.5168 39.1923 15.2674 38.293 14.7687C37.3977 14.2659 36.6905 13.5341 36.1713 12.5735C35.6522 11.6128 35.3926 10.4437 35.3926 9.06602C35.3926 7.68429 35.6563 6.51309 36.1836 5.55243C36.7109 4.59176 37.4243 3.86206 38.3236 3.36333C39.223 2.8646 40.2307 2.61523 41.3467 2.61523C42.107 2.61523 42.8102 2.72152 43.4561 2.93409C44.102 3.14258 44.6702 3.44918 45.1607 3.85388C45.6513 4.2545 46.0499 4.7471 46.3565 5.33168C46.6631 5.91625 46.8531 6.58463 46.9267 7.33681Z" fill="black"/>
<path d="M51.405 15.3451H48.1428L52.38 2.78693H56.4209L60.6581 15.3451H57.3959L54.4464 5.951H54.3483L51.405 15.3451ZM50.9696 10.4028H57.7883V12.7084H50.9696V10.4028Z" fill="black"/>
<path d="M60.3764 5.25196V2.78693H70.9908V5.25196H67.1829V15.3451H64.1905V5.25196H60.3764Z" fill="black"/>
<path d="M79.6066 6.55193C79.5657 6.10225 79.3838 5.75273 79.0608 5.50337C78.742 5.24992 78.2861 5.12319 77.6934 5.12319C77.301 5.12319 76.9739 5.17429 76.7123 5.27649C76.4507 5.37869 76.2544 5.51972 76.1236 5.69959C75.9928 5.87537 75.9254 6.07773 75.9213 6.30665C75.9131 6.4947 75.9499 6.66026 76.0317 6.80334C76.1175 6.94642 76.2401 7.07314 76.3996 7.18352C76.5631 7.2898 76.7593 7.38383 76.9882 7.46558C77.2172 7.54734 77.4747 7.61888 77.7609 7.6802L78.8401 7.92548C79.4614 8.06038 80.0092 8.24025 80.4834 8.46509C80.9617 8.68993 81.3623 8.95769 81.6853 9.26837C82.0123 9.57905 82.2596 9.93675 82.4272 10.3415C82.5948 10.7462 82.6807 11.1999 82.6848 11.7027C82.6807 12.4958 82.4804 13.1764 82.0839 13.7447C81.6873 14.3129 81.1171 14.7483 80.3731 15.0508C79.6331 15.3533 78.7399 15.5045 77.6934 15.5045C76.6428 15.5045 75.7271 15.3471 74.9463 15.0324C74.1655 14.7176 73.5584 14.2393 73.1251 13.5975C72.6918 12.9557 72.469 12.1442 72.4567 11.1631H75.3633C75.3878 11.5678 75.4961 11.9051 75.6883 12.1749C75.8804 12.4447 76.1441 12.6491 76.4793 12.7881C76.8186 12.9271 77.211 12.9966 77.6566 12.9966C78.0654 12.9966 78.4129 12.9414 78.699 12.831C78.9893 12.7206 79.2121 12.5673 79.3674 12.3711C79.5228 12.1749 79.6025 11.9501 79.6066 11.6966C79.6025 11.4595 79.5289 11.2572 79.3858 11.0896C79.2427 10.9179 79.022 10.7707 78.7236 10.6481C78.4292 10.5213 78.0531 10.4048 77.5953 10.2985L76.2831 9.99194C75.1957 9.74257 74.3392 9.33991 73.7138 8.78395C73.0883 8.2239 72.7776 7.46763 72.7817 6.51514C72.7776 5.73843 72.9861 5.05778 73.4072 4.47321C73.8282 3.88863 74.4108 3.43282 75.1548 3.10579C75.8988 2.77875 76.747 2.61523 77.6995 2.61523C78.6725 2.61523 79.5166 2.7808 80.232 3.11192C80.9515 3.43896 81.5095 3.89885 81.906 4.4916C82.3026 5.08436 82.5049 5.77113 82.5131 6.55193H79.6066Z" fill="black"/>
<path d="M93.2601 15.3451H88.6183V2.78693H93.254C94.5335 2.78693 95.6352 3.03834 96.5591 3.54116C97.4871 4.03988 98.2025 4.75936 98.7053 5.69959C99.2081 6.63573 99.4595 7.75583 99.4595 9.05988C99.4595 10.368 99.2081 11.4922 98.7053 12.4324C98.2066 13.3727 97.4932 14.0942 96.5653 14.597C95.6373 15.0957 94.5356 15.3451 93.2601 15.3451ZM91.6536 12.7574H93.1436C93.8468 12.7574 94.4416 12.6389 94.928 12.4018C95.4186 12.1606 95.7885 11.7702 96.0379 11.2306C96.2914 10.6869 96.4181 9.96332 96.4181 9.05988C96.4181 8.15645 96.2914 7.43697 96.0379 6.90145C95.7844 6.36184 95.4104 5.97348 94.9158 5.73638C94.4252 5.49519 93.8202 5.3746 93.1007 5.3746H91.6536V12.7574Z" fill="black"/>
<path d="M104.612 2.78693V15.3451H101.577V2.78693H104.612Z" fill="black"/>
<path d="M109.58 15.3451H106.317L110.555 2.78693H114.595L118.833 15.3451H115.57L112.621 5.951H112.523L109.58 15.3451ZM109.144 10.4028H115.963V12.7084H109.144V10.4028Z" fill="black"/>
<path d="M120.53 15.3451V2.78693H125.718C126.658 2.78693 127.469 2.95658 128.152 3.29588C128.839 3.63109 129.368 4.11347 129.74 4.74301C130.112 5.36847 130.298 6.11043 130.298 6.9689C130.298 7.83963 130.108 8.57955 129.728 9.18865C129.348 9.79367 128.808 10.2556 128.109 10.5745C127.41 10.8892 126.582 11.0466 125.626 11.0466H122.345V8.65518H125.062C125.519 8.65518 125.902 8.5959 126.208 8.47735C126.519 8.35471 126.754 8.17076 126.913 7.92548C127.073 7.67611 127.153 7.35725 127.153 6.9689C127.153 6.58054 127.073 6.25964 126.913 6.00619C126.754 5.74865 126.519 5.55651 126.208 5.42979C125.898 5.29897 125.515 5.23357 125.062 5.23357H123.565V15.3451H120.53ZM127.6 9.60563L130.727 15.3451H127.416L124.35 9.60563H127.6Z" fill="black"/>
<path d="M131.126 2.78693H134.517L137.173 8.04199H137.283L139.938 2.78693H143.329L138.736 11.1509V15.3451H135.719V11.1509L131.126 2.78693Z" fill="black"/>
<path d="M20.9976 0.520119C20.953 0.222057 20.6894 0.00989696 20.3988 0.0352682C19.6645 0.0979172 18.9889 0.241874 18.3329 0.476209C17.3002 0.844391 16.3679 1.3817 15.56 2.07388L15.548 2.07044C14.9872 1.91594 14.4074 1.75616 13.825 1.62439C12.9469 1.42633 12.044 1.31102 11.1418 1.28202C10.317 1.25545 9.46146 1.29572 8.52127 1.40576C7.56307 1.51727 6.60254 1.72771 5.66617 2.03017C5.658 2.03276 5.65073 2.03492 5.64412 2.0368C5.5675 1.9626 5.49038 1.90926 5.42621 1.86495C5.40206 1.84781 5.37701 1.83139 5.3543 1.81285C4.5302 1.13482 3.5603 0.622123 2.47116 0.289101C1.94831 0.129122 1.43239 0.0351483 0.894329 0.0011868C0.61517 -0.0171924 0.367046 0.179784 0.312249 0.460906C0.305171 0.497384 0.297353 0.532864 0.289925 0.568024C0.270596 0.659121 0.250529 0.753095 0.236917 0.857137C0.1176 1.77422 0.130822 2.71179 0.275419 3.64378C0.453812 4.79216 0.789907 5.85056 1.2746 6.79253C1.03356 7.36025 0.881923 7.99529 0.812231 8.72921C0.67129 10.2105 0.936915 11.6401 1.60179 12.9778C2.12923 14.0384 2.8885 14.9398 3.8593 15.6566C4.75013 16.3143 5.5885 16.6164 6.59407 16.9284C7.59979 17.2405 8.64727 16.1935 10.6176 16.2071C12.4759 16.2192 12.9473 17 14.2436 17C14.2436 17 14.291 16.989 14.2904 16.989C15.0036 16.7884 15.6414 16.5336 16.2405 16.2103C17.3245 15.6259 18.2261 14.8155 18.92 13.8013C19.6859 12.6821 20.1372 11.4081 20.2619 10.0148C20.3601 8.9136 20.2185 7.84713 19.8384 6.8368L19.9144 6.66375C20.1321 6.16812 20.3571 5.65614 20.5439 5.12762C20.8458 4.27235 21.0158 3.35546 21.0637 2.32495C21.086 1.8407 21.0989 1.19775 20.9976 0.520119ZM9.03459 11.3212C9.03459 11.3212 6.884 11.5457 5.69257 10.3217C4.50115 9.09732 4.7198 6.88818 4.7198 6.88818C4.7198 6.88818 6.87019 6.66396 8.06162 7.88793C9.2532 9.1119 9.03459 11.3212 9.03459 11.3212ZM15.7613 10.3217C14.5699 11.5457 12.4194 11.3212 12.4194 11.3212C12.4194 11.3212 12.201 9.1119 13.3924 7.88797C14.5837 6.66395 16.7342 6.88822 16.7342 6.88822C16.7342 6.88822 16.9529 9.09776 15.7613 10.3217Z" fill="black"/>
</svg>
